<svg width="48" height="48" viewBox="0 0 48 48" fill="none" xmlns="http://www.w3.org/2000/svg">
<g id="Iconsax/Bold/quoteup">
<path id="Vector" d="M16.18 23.2616H6.8C6.96 13.9216 8.8 12.3816 14.54 8.98157C15.2 8.58157 15.42 7.74157 15.02 7.06157C14.9279 6.90412 14.8053 6.76659 14.6595 6.65701C14.5137 6.54742 14.3475 6.46797 14.1706 6.42329C13.9938 6.37861 13.8098 6.3696 13.6294 6.39677C13.449 6.42395 13.2758 6.48677 13.12 6.58157C6.36 10.5816 4 13.0216 4 24.6416V35.4216C4 38.8416 6.78 41.6016 10.18 41.6016H16.18C19.7 41.6016 22.36 38.9416 22.36 35.4216V29.4216C22.36 25.9216 19.7 23.2616 16.18 23.2616ZM37.818 23.2616H28.438C28.598 13.9216 30.438 12.3816 36.178 8.98157C36.838 8.58157 37.058 7.74157 36.658 7.06157C36.5638 6.90364 36.4393 6.76589 36.2916 6.65622C36.144 6.54656 35.9762 6.46714 35.7978 6.42254C35.6193 6.37794 35.4339 6.36903 35.252 6.39632C35.0701 6.42361 34.8955 6.48656 34.738 6.58157C27.978 10.5816 25.618 13.0216 25.618 24.6616V35.4416C25.618 38.8616 28.398 41.6216 31.798 41.6216H37.798C41.318 41.6216 43.978 38.9616 43.978 35.4416V29.4416C43.998 25.9216 41.338 23.2616 37.818 23.2616Z" fill="#5AC4FF"/>
</g>
</svg>
